<?xml version="1.0" encoding="UTF-8"?>
<svg width="80px" height="80px" viewBox="0 0 80 80" version="1.1" xmlns="http://www.w3.org/2000/svg" xmlns:xlink="http://www.w3.org/1999/xlink">
    <title>8C620760-CE72-46B2-9D10-8EA9EFADAD54</title>
    <g id="Page-3" stroke="none" stroke-width="1" fill="none" fill-rule="evenodd">
        <g id="Home-YLN---Post-a-job" transform="translate(-1320.000000, -1081.000000)">
            <g id="Group-7" transform="translate(456.000000, 993.000000)">
                <g id="Group-6" transform="translate(757.000000, 88.000000)">
                    <g id="kick-start-their-career" transform="translate(107.000000, 0.000000)">
                        <rect id="Rectangle" x="0" y="0" width="80" height="80"></rect>
                        <g id="001-business" transform="translate(8.000000, 11.000000)" fill="#FFC72B" fill-rule="nonzero">
                            <path d="M62.125,7.42857143 L45.125,7.42857143 L45.125,5.57142857 C45.125,2.49921905 42.60175,0 39.5,0 L24.5,0 C21.39825,0 18.875,2.49921905 18.875,5.57142857 L18.875,7.42857143 L1.875,7.42857143 C0.8395,7.42857143 0,8.25982857 0,9.28571429 L0,20.4285714 C0,23.5056095 2.518375,26 5.625,26 L58.375,26 C61.481625,26 64,23.5056095 64,20.4285714 L64,9.28571429 C64,8.25982857 63.1605,7.42857143 62.125,7.42857143 Z M41.375,7.42857143 L22.625,7.42857143 L22.625,5.57142857 C22.625,4.54678095 23.46725,3.71428571 24.5,3.71428571 L39.5,3.71428571 C40.53275,3.71428571 41.375,4.54678095 41.375,5.57142857 L41.375,7.42857143 Z" id="Shape"></path>
                            <path d="M34,30 L30,30 C30,31.1034667 30.8984,32 32,32 C33.1016,32 34,31.1034667 34,30 Z" id="Path"></path>
                            <path d="M26.4247788,30.186594 L5.85840708,30.186594 C5.22184071,30.186594 4.60076106,30.1215688 4,30 L4,50.4685559 C4,53.5187171 6.50092035,56 9.57522124,56 L54.4247788,56 C57.4990796,56 60,53.5187171 60,50.4685559 L60,30 C59.3992389,30.1215688 58.7781593,30.186594 58.1415929,30.186594 L37.5752212,30.186594 C37.5752212,33.2367553 35.0743009,35.7180382 32,35.7180382 C28.9256991,35.7180382 26.4247788,33.2367553 26.4247788,30.186594 L26.4247788,30.186594 Z M33.8584071,47.0008321 L40.522531,40.3890354 L37.5752212,40.3890354 C36.5480177,40.3890354 35.7168142,39.5643586 35.7168142,38.5452207 C35.7168142,37.5260829 36.5480177,36.701406 37.5752212,36.701406 L45.0088496,36.701406 C46.0360531,36.701406 46.8672566,37.5260829 46.8672566,38.5452207 L46.8672566,45.9204796 C46.8672566,46.9396174 46.0360531,47.7642943 45.0088496,47.7642943 C43.981646,47.7642943 43.1504425,46.9396174 43.1504425,45.9204796 L43.1504425,42.9963124 L35.1723009,50.9118089 C34.4464071,51.632003 33.2704071,51.6321259 32.5443894,50.9118089 L26.4247788,44.8401271 L20.3050442,50.9118089 C19.5791504,51.632003 18.4030265,51.632003 17.6771327,50.9118089 C16.9512389,50.1916149 16.9512389,49.024726 17.6771327,48.304532 L25.1107611,40.9292732 C25.8366549,40.2090791 27.0127788,40.2090791 27.7386726,40.9292732 L33.8584071,47.0008321 Z" id="Shape"></path>
                        </g>
                    </g>
                </g>
            </g>
        </g>
    </g>
</svg>