<?xml version="1.0" encoding="UTF-8"?>
<svg width="80px" height="80px" viewBox="0 0 80 80" version="1.1" xmlns="http://www.w3.org/2000/svg" xmlns:xlink="http://www.w3.org/1999/xlink">
    <title>D111DA26-7EDA-4887-84A8-382032A4A7FB</title>
    <g id="Page-3" stroke="none" stroke-width="1" fill="none" fill-rule="evenodd">
        <g id="Home-YLN---Post-a-job" transform="translate(-920.000000, -1081.000000)">
            <g id="Group-7" transform="translate(456.000000, 993.000000)">
                <g id="Group-6" transform="translate(400.000000, 88.000000)">
                    <g id="great-brand-exposure" transform="translate(64.000000, 0.000000)">
                        <rect id="Rectangle" x="0" y="0" width="80" height="80"></rect>
                        <g id="001-brand-positioning" transform="translate(16.000000, 11.000000)" fill="#FFC72B" fill-rule="nonzero">
                            <path d="M40.3671006,43 L39.3780172,43.484263 L36.4991973,47.1544146 C35.9489812,47.8595062 35.1114475,48.2695631 34.2261833,48.2672834 L29.6089268,48.2672834 L27,49.5446932 L35.1330146,60.4167168 C35.4078701,60.7841672 35.8358162,61 36.2898726,61 C36.3365104,61 36.3835115,60.99766 36.4303915,60.9931031 C36.9318493,60.9436691 37.3723755,60.6337732 37.5946389,60.1740927 L40.1421492,54.9058241 L45.8159623,53.8169714 C46.3110479,53.7219621 46.7224407,53.3730865 46.9032051,52.8949511 C47.0839695,52.4168157 47.0083255,51.8776106 46.7032906,51.4699217 L40.3671006,43 Z" id="Path"></path>
                            <path d="M13.7738167,48.2671963 C12.8886318,48.2693949 12.0511839,47.8594007 11.5009238,47.154443 L8.62198276,43.4842663 L7.63289945,43 L1.29670942,51.4698565 C0.991674474,51.8775482 0.916030453,52.416757 1.09679486,52.8948956 C1.27755927,53.3730343 1.68895212,53.7219123 2.18403768,53.8169222 L7.85797193,54.9057824 L10.4053611,60.1740871 C10.6276245,60.6337706 11.0681507,60.9436687 11.5696085,60.993103 C11.6166096,60.9976189 11.6634493,61 11.7101274,61 C12.1641838,61 12.5921299,60.7841658 12.8669854,60.4167129 L21,49.5446148 L18.3911943,48.2671963 L13.7738167,48.2671963 Z" id="Path"></path>
                            <path d="M46.8627916,24.5 L47.9635558,19.69269 C48.0619508,19.2630022 47.9586914,18.8120372 47.6830068,18.4674487 L44.5986632,14.61238 L43.4978989,9.8051907 C43.3995057,9.37552484 43.1101858,9.01389443 42.711829,8.82265629 L38.25489,6.68319092 L35.1704252,2.82812223 C34.8947257,2.48353794 34.4766062,2.28284201 34.0344258,2.28284641 L29.0875856,2.28284641 L24.6305255,0.143381046 C24.2320866,-0.0477936821 23.7680076,-0.0477936821 23.3695686,0.143381046 L18.9125086,2.28284641 L13.9656683,2.28284641 C13.5235304,2.28287874 13.105463,2.48357103 12.82979,2.82812223 L9.74532525,6.68319092 L5.28838627,8.82241491 C4.88998303,9.0136245 4.60061491,9.37525944 4.50219526,9.80494932 L3.40143099,14.61238 L0.317087303,18.4674487 C0.0413603161,18.8120168 -0.0619441894,19.2629839 0.0364172344,19.69269 L1.13730259,24.5 L0.0364172344,29.30731 C-0.0619441894,29.7370161 0.0413603161,30.1879832 0.317087303,30.5325513 L3.40143099,34.38762 L4.50219526,39.1948093 C4.60061491,39.6244992 4.88998303,39.9861341 5.28838627,40.1773437 L9.74532525,42.3168091 L12.82979,46.1718778 C13.105463,46.516429 13.5235304,46.7171213 13.9656683,46.7171536 L18.9125086,46.7171536 L23.3695686,48.856619 C23.7680076,49.0477937 24.2320866,49.0477937 24.6305255,48.856619 L29.0875856,46.7171536 L34.0344258,46.7171536 C34.4766062,46.717158 34.8947257,46.5164621 35.1704252,46.1718778 L38.25489,42.3168091 L42.711829,40.1775851 C43.1101858,39.9863469 43.3995057,39.6247165 43.4978989,39.1950507 L44.5986632,34.3878614 L47.6830068,30.5327927 C47.9586914,30.1882042 48.0619508,29.7372391 47.9635558,29.3075514 L46.8627916,24.5 Z M24.0000471,42.241378 C14.2528769,42.241378 6.32194956,34.3368096 6.32194956,24.6206896 C6.32194956,14.9045696 14.2528769,7.00000125 24.0000471,7.00000125 C33.7472173,7.00000125 41.6781446,14.9051731 41.6781446,24.6206896 C41.6781446,34.3362062 33.7478227,42.241378 24.0000471,42.241378 Z" id="Shape"></path>
                            <path d="M24.5,8 C15.4018507,8 8,15.4018507 8,24.5 C8,33.5981493 15.4018507,41 24.5,41 C33.5981493,41 41,33.5981493 41,24.5 C41,15.4018507 33.5981493,8 24.5,8 Z M24.5,15.4282015 C25.3160625,15.4282015 25.9776119,16.0897509 25.9776119,16.9058134 C25.9776119,17.721876 25.3160625,18.3834254 24.5,18.3834254 C23.6839375,18.3834254 23.0223881,17.721876 23.0223881,16.9058134 C23.0223881,16.0897509 23.6839375,15.4282015 24.5,15.4282015 L24.5,15.4282015 Z M14.1567164,22.2835821 C13.3406539,22.2835821 12.6791045,21.6220327 12.6791045,20.8059701 C12.6791045,19.9899076 13.3406539,19.3283582 14.1567164,19.3283582 C14.972779,19.3283582 15.6343284,19.9899076 15.6343284,20.8059701 C15.6343284,21.6220327 14.972779,22.2835821 14.1567164,22.2835821 Z M33.6906231,23.9412164 L32.2845522,32.3772724 C32.165791,33.0897612 31.5493301,33.6119403 30.8270112,33.6119403 L18.1729888,33.6119403 C17.4506699,33.6119403 16.834209,33.0897612 16.7154478,32.3772724 L15.3093769,23.9412164 C15.2128911,23.3626894 15.4677139,22.7818625 15.958743,22.4610924 C16.4497721,22.1403223 17.084039,22.1403417 17.5750485,22.4611418 L20.604153,24.439541 L23.2379963,20.1175261 C23.5062111,19.6774247 23.9843622,19.4088779 24.4997537,19.4088779 C25.0151453,19.4088779 25.4932964,19.6774247 25.7615112,20.1175261 L28.3954776,24.439541 L31.4245821,22.4611418 C31.9155916,22.1403417 32.5498585,22.1403223 33.0408876,22.4610924 C33.5319167,22.7818625 33.7867395,23.3626894 33.6902537,23.9412164 L33.6906231,23.9412164 Z M34.8432836,22.2835821 C34.027221,22.2835821 33.3656716,21.6220327 33.3656716,20.8059701 C33.3656716,19.9899076 34.027221,19.3283582 34.8432836,19.3283582 C35.6593461,19.3283582 36.3208955,19.9899076 36.3208955,20.8059701 C36.3208955,21.6220327 35.6593461,22.2835821 34.8432836,22.2835821 Z" id="Shape"></path>
                        </g>
                    </g>
                </g>
            </g>
        </g>
    </g>
</svg>