<?xml version="1.0" encoding="UTF-8"?>
<svg width="16px" height="16px" viewBox="0 0 16 16" version="1.1" xmlns="http://www.w3.org/2000/svg" xmlns:xlink="http://www.w3.org/1999/xlink">
    <title>7A5669F5-03AC-4336-85E3-B603CD2E1512</title>
    <g id="Page-3" stroke="none" stroke-width="1" fill="none" fill-rule="evenodd">
        <g id="Home-YLN---Events" transform="translate(-944.000000, -568.000000)">
            <g id="Description" transform="translate(912.000000, 272.000000)">
                <g id="icon/placeholder" transform="translate(32.000000, 296.000000)">
                    <rect id="Rectangle" x="0" y="0" width="16" height="16"></rect>
                    <g id="001-clock" transform="translate(0.000000, 0.000000)" fill="#2C2823" fill-rule="nonzero">
                        <path d="M8,0 C3.58862306,0 0,3.58862306 0,8 C0,12.4113769 3.58862306,16 8,16 C12.4113769,16 16,12.4113769 16,8 C16,3.58862306 12.4113769,0 8,0 Z M11.8046875,12.1379394 C11.6746826,12.2679443 11.5040283,12.333374 11.333374,12.333374 C11.1627197,12.333374 10.9919434,12.2679443 10.8620606,12.1379394 L7.52868653,8.8046875 C7.40332031,8.68005372 7.33337403,8.51062012 7.33337403,8.33337403 L7.33337403,4 C7.33337403,3.63134766 7.631958,3.33337403 8,3.33337403 C8.368042,3.33337403 8.66662597,3.63134766 8.66662597,4 L8.66662597,8.05737306 L11.8046875,11.1953125 C12.0653076,11.4560547 12.0653076,11.8773193 11.8046875,12.1379394 L11.8046875,12.1379394 Z" id="Shape"></path>
                    </g>
                </g>
            </g>
        </g>
    </g>
</svg>