<?xml version="1.0" encoding="UTF-8"?>
<svg width="80px" height="80px" viewBox="0 0 80 80" version="1.1" xmlns="http://www.w3.org/2000/svg" xmlns:xlink="http://www.w3.org/1999/xlink">
    <title>99FFC8FC-564D-44E2-8259-1110233613BC</title>
    <g id="Page-3" stroke="none" stroke-width="1" fill="none" fill-rule="evenodd">
        <g id="Home-YLN---Post-a-job" transform="translate(-520.000000, -1081.000000)">
            <g id="Group-7" transform="translate(456.000000, 993.000000)">
                <g id="Group-6" transform="translate(0.000000, 88.000000)">
                    <g id="Connect-with-diverse-talents-" transform="translate(64.000000, 0.000000)">
                        <rect id="Rectangle" x="0" y="0" width="80" height="80"></rect>
                        <g id="001-affiliate-marketing" transform="translate(12.000000, 11.000000)" fill="#FFC72B" fill-rule="nonzero">
                            <path d="M33,5.05494505 C33,2.32813187 30.7571111,0 28,0 C25.2428889,0 23,2.32813187 23,5.05494505 C23,7.78175824 25.2428889,10 28,10 C30.7571111,10 33,7.78175824 33,5.05494505 Z" id="Path"></path>
                            <path d="M36,18.3333333 C36,13.7385556 32.4109867,10 28,10 C23.5890133,10 20,13.7385556 20,18.3333333 L20,20 L36,20 L36,18.3333333 Z" id="Path"></path>
                            <circle id="Oval" cx="48" cy="25" r="5"></circle>
                            <path d="M47.4437086,30 C42.7880728,30 39,33.7385556 39,38.3333333 L39,40 L56,40 L56,38.3333333 C56,33.7385556 52.0993444,30 47.4437086,30 Z" id="Path"></path>
                            <circle id="Oval" cx="8" cy="25" r="5"></circle>
                            <path d="M17,38.3333333 C17,33.7385556 13.2119272,30 8.55629139,30 C3.90065563,30 0,33.7385556 0,38.3333333 L0,40 L17,40 L17,38.3333333 Z" id="Path"></path>
                            <circle id="Oval" cx="28" cy="41" r="5"></circle>
                            <path d="M36,54.2417582 C36,49.6974725 32.4109867,46 28,46 C23.5890133,46 20,49.6974725 20,54.2417582 L20,56 L36,56 L36,54.2417582 Z" id="Path"></path>
                            <path d="M10.3333333,15.3333333 C10.3333333,12.5762222 12.5762222,10.3333333 15.3333333,10.3333333 L17,10.3333333 L17,7 L15.3333333,7 C10.7385556,7 7,10.7385556 7,15.3333333 L7,17 L10.3333333,17 L10.3333333,15.3333333 Z" id="Path"></path>
                            <path d="M45.6666667,15.3333333 L45.6666667,17 L49,17 L49,15.3333333 C49,10.7385556 45.2614444,7 40.6666667,7 L39,7 L39,10.3333333 L40.6666667,10.3333333 C43.4237778,10.3333333 45.6666667,12.5762222 45.6666667,15.3333333 Z" id="Path"></path>
                            <path d="M7,43 L7,44.6666667 C7,49.2614444 10.7385556,53 15.3333333,53 L17,53 L17,49.6666667 L15.3333333,49.6666667 C12.5762222,49.6666667 10.3333333,47.4237778 10.3333333,44.6666667 L10.3333333,43 L7,43 Z" id="Path"></path>
                            <path d="M49,44.6666667 L49,43 L45.6666667,43 L45.6666667,44.6666667 C45.6666667,47.4237778 43.4237778,49.6666667 40.6666667,49.6666667 L39,49.6666667 L39,53 L40.6666667,53 C45.2614444,53 49,49.2614444 49,44.6666667 Z" id="Path"></path>
                        </g>
                    </g>
                </g>
            </g>
        </g>
    </g>
</svg>