<?xml version="1.0" encoding="UTF-8"?>
<svg width="64px" height="64px" viewBox="0 0 64 64" version="1.1" xmlns="http://www.w3.org/2000/svg" xmlns:xlink="http://www.w3.org/1999/xlink">
    <title>8B5D41A2-C51B-4765-B215-9C24D3281FD3</title>
    <g id="Page-3" stroke="none" stroke-width="1" fill="none" fill-rule="evenodd">
        <g id="Home-YLN---Employer" transform="translate(-1072.000000, -2908.000000)">
            <g id="Group-9" transform="translate(370.000000, 2784.000000)">
                <g id="Group-8" transform="translate(600.000000, 92.000000)">
                    <g id="D&amp;I-Consultation" transform="translate(102.000000, 32.000000)">
                        <rect id="Rectangle" fill="#FFC72B" x="0" y="0" width="64" height="64" rx="19"></rect>
                        <g id="005-consulting" transform="translate(20.000000, 19.000000)" fill="#EBEEF1" fill-rule="nonzero">
                            <path d="M19.6015625,15.3359375 C17.9215156,15.3359375 16.5546875,13.9691094 16.5546875,12.2890625 C16.5546875,10.6090156 17.9215156,9.2421875 19.6015625,9.2421875 C21.2816094,9.2421875 22.6484375,10.6090156 22.6484375,12.2890625 C22.6484375,13.9691094 21.2816094,15.3359375 19.6015625,15.3359375 Z" id="Path"></path>
                            <path d="M25.2382812,26 L0.76171875,26 C0.341046875,26 0,25.6589531 0,25.2382812 L0,23.7148438 C0,23.2941719 0.341046875,22.953125 0.76171875,22.953125 L25.2382812,22.953125 C25.6589531,22.953125 26,23.2941719 26,23.7148438 L26,25.2382812 C26,25.6589531 25.6589531,26 25.2382812,26 Z" id="Path"></path>
                            <path d="M22.2264453,16.0282383 C21.4831602,16.5515898 20.5776797,16.859375 19.6015625,16.859375 C18.6254453,16.859375 17.7199648,16.5515898 16.9766797,16.0282383 C16.3103789,16.4066602 15.7335039,16.9246797 15.2851562,17.541875 L15.2851562,19.1445313 C15.2851562,19.9351445 14.8814961,20.633082 14.2695312,21.0435469 L14.2695312,21.4296875 L24.9335938,21.4296875 L24.9335938,20.6679688 C24.9335938,18.6815586 23.8415938,16.9456016 22.2264453,16.0282383 Z" id="Path"></path>
                            <path d="M13,10.765625 L0.8125,10.765625 C0.391828125,10.765625 0.05078125,11.1066719 0.05078125,11.5273438 L0.05078125,19.1445312 C0.05078125,19.5652031 0.391828125,19.90625 0.8125,19.90625 L4.32595312,19.90625 L3.81814063,21.4296875 L9.99430859,21.4296875 L9.48649609,19.90625 L13,19.90625 C13.4206719,19.90625 13.7617188,19.5652031 13.7617188,19.1445312 L13.7617188,11.5273438 C13.7617188,11.1066719 13.4206719,10.765625 13,10.765625 Z" id="Path"></path>
                            <path d="M17.0625,0 L5.890625,0 C4.91059766,0 4.11328125,0.797316406 4.11328125,1.77734375 L4.11328125,5.83984375 C4.11328125,6.81987109 4.91059766,7.6171875 5.890625,7.6171875 L12.2615391,7.6171875 L15.1165625,9.52051953 C15.2440234,9.60547656 15.3913398,9.6484375 15.5391133,9.6484375 C15.6623594,9.6484375 15.7858594,9.61857813 15.8984922,9.55830078 C16.1461523,9.42576172 16.3007813,9.16764062 16.3007813,8.88671875 L16.3007813,7.6171875 L17.0625,7.6171875 C18.0425273,7.6171875 18.8398438,6.81987109 18.8398438,5.83984375 L18.8398438,1.77734375 C18.8398438,0.797316406 18.0425273,0 17.0625,0 Z M15.03125,4.5703125 L7.921875,4.5703125 C7.50120312,4.5703125 7.16015625,4.22926563 7.16015625,3.80859375 C7.16015625,3.38792187 7.50120312,3.046875 7.921875,3.046875 L15.03125,3.046875 C15.4519219,3.046875 15.7929688,3.38792187 15.7929688,3.80859375 C15.7929688,4.22926563 15.4519219,4.5703125 15.03125,4.5703125 Z" id="Shape"></path>
                        </g>
                    </g>
                </g>
            </g>
        </g>
    </g>
</svg>