<?xml version="1.0" encoding="UTF-8"?>
<svg width="64px" height="64px" viewBox="0 0 64 64" version="1.1" xmlns="http://www.w3.org/2000/svg" xmlns:xlink="http://www.w3.org/1999/xlink">
    <title>24B764C0-61C1-4790-A1EB-0D401C2B8A35</title>
    <g id="Page-3" stroke="none" stroke-width="1" fill="none" fill-rule="evenodd">
        <g id="Home-YLN---Employer" transform="translate(-472.000000, -2908.000000)">
            <g id="Group-9" transform="translate(370.000000, 2784.000000)">
                <g id="Group-8" transform="translate(0.000000, 92.000000)">
                    <g id="Early-Career-Recruitment" transform="translate(102.000000, 32.000000)">
                        <rect id="Rectangle" fill="#FFC72B" x="0" y="0" width="64" height="64" rx="19"></rect>
                        <g id="002-career-path" transform="translate(18.000000, 16.000000)" fill="#EBEEF1" fill-rule="nonzero">
                            <path d="M13.9423077,7.25 L13.9423077,8.36538462 C13.9423077,8.67338957 14.191995,8.92307692 14.5,8.92307692 C14.808005,8.92307692 15.0576923,8.67338957 15.0576923,8.36538462 L15.0576923,7.25 C15.0576923,6.94199504 14.808005,6.69230769 14.5,6.69230769 C14.191995,6.69230769 13.9423077,6.94199504 13.9423077,7.25 Z" id="Path"></path>
                            <path d="M12.8514615,7.00963462 C12.9668705,6.18774178 13.6700439,5.57640838 14.5,5.57640838 C15.3299561,5.57640838 16.0331295,6.18774178 16.1485385,7.00963462 C16.2600769,6.97728846 16.3716154,6.94605769 16.4781346,6.90757692 L22.8653846,4.62884615 L22.8653846,3.90384615 C22.8653846,3.28783624 22.3660099,2.78846154 21.75,2.78846154 L7.25,2.78846154 C6.63399009,2.78846154 6.13461538,3.28783624 6.13461538,3.90384615 L6.13461538,4.62884615 L12.5213077,6.90980769 C12.6295,6.94605769 12.7404808,6.97728846 12.8514615,7.00963462 Z" id="Path"></path>
                            <path d="M21.75,13.9423077 C22.3660099,13.9423077 22.8653846,13.442933 22.8653846,12.8269231 L22.8653846,5.81059615 L16.8534615,7.95771154 C16.6302459,8.03605911 16.4031515,8.10288441 16.1730769,8.15792308 L16.1730769,8.36538462 C16.1730769,9.28939949 15.4240149,10.0384615 14.5,10.0384615 C13.5759851,10.0384615 12.8269231,9.28939949 12.8269231,8.36538462 L12.8269231,8.15848077 C12.5967045,8.10307358 12.3694338,8.03606501 12.1459808,7.95771154 L6.13461538,5.81059615 L6.13461538,12.8269231 C6.13461538,13.442933 6.63399009,13.9423077 7.25,13.9423077 L14.1553462,13.9423077 L12.4722308,17.3090962 C12.4050631,17.2979725 12.3372629,17.2910807 12.2692308,17.2884615 C11.3452159,17.2884615 10.5961538,18.0375236 10.5961538,18.9615385 C10.5961538,19.8855533 11.3452159,20.6346154 12.2692308,20.6346154 C12.53998,20.6328552 12.8061608,20.5646822 13.0444231,20.4360769 L17.9822308,24.9940962 C17.8924606,25.2024652 17.8461569,25.4269621 17.8461538,25.6538462 C17.8461538,25.7023654 17.8561923,25.7480962 17.8606538,25.7949423 L8.45294231,30.0713269 C7.8961213,29.4952893 7.00909183,29.3948378 6.33755717,29.8317705 C5.66602251,30.2687032 5.39848704,31.1203701 5.69953941,31.8628232 C6.00059179,32.6052762 6.78572454,33.0301036 7.57192157,32.8759503 C8.3581186,32.721797 8.924689,32.0319349 8.92307692,31.2307692 C8.92307692,31.18225 8.91303846,31.1365192 8.90857692,31.0891154 L18.3162885,26.8132885 C18.913824,27.445383 19.8951358,27.51655 20.5776211,26.9772856 C21.2601064,26.4380213 21.4178206,25.4668551 20.9410575,24.7393325 C20.4642943,24.0118099 19.5108916,23.7687855 18.7440385,24.1793077 L13.8062308,19.6212885 C14.0725975,19.0031742 13.9405468,18.2854786 13.4716154,17.8026538 L15.4023462,13.9423077 L21.75,13.9423077 Z" id="Path"></path>
                            <path d="M16.7307692,1.11538462 C16.7307692,0.499374702 16.2313945,0 15.6153846,0 L13.3846154,0 C12.7686055,0 12.2692308,0.499374702 12.2692308,1.11538462 L12.2692308,1.67307692 L16.7307692,1.67307692 L16.7307692,1.11538462 Z" id="Path"></path>
                            <polygon id="Path" points="3.34615385 18.9615385 0 23.4230769 1.67307692 23.4230769 1.67307692 27.8846154 5.01923077 27.8846154 5.01923077 23.4230769 6.69230769 23.4230769"></polygon>
                            <polygon id="Path" points="25.6538462 15.6153846 22.3076923 20.0769231 23.9807692 20.0769231 23.9807692 24.5384615 27.3269231 24.5384615 27.3269231 20.0769231 29 20.0769231"></polygon>
                        </g>
                    </g>
                </g>
            </g>
        </g>
    </g>
</svg>