<svg id="elements" xmlns="http://www.w3.org/2000/svg" width="283" height="236" viewBox="0 0 283 236">
  <circle id="Oval" cx="6" cy="6" r="6" transform="translate(271 39)" fill="#ffc72b"/>
  <circle id="Oval-2" data-name="Oval" cx="3" cy="3" r="3" transform="translate(259 212)" fill="#ffc72b"/>
  <circle id="Oval-3" data-name="Oval" cx="2.5" cy="2.5" r="2.5" transform="translate(84 224)" fill="#ffc72b"/>
  <circle id="Oval-4" data-name="Oval" cx="2.5" cy="2.5" r="2.5" transform="translate(265 23)" fill="#ffc72b"/>
  <circle id="Oval-5" data-name="Oval" cx="1" cy="1" r="1" transform="translate(243 18)" fill="#ffc72b"/>
  <circle id="Oval-6" data-name="Oval" cx="1" cy="1" r="1" transform="translate(245 210)" fill="#ffc72b"/>
  <circle id="Oval-7" data-name="Oval" cx="4" cy="4" r="4" transform="translate(61 222)" fill="#d08e3f"/>
  <circle id="Oval-8" data-name="Oval" cx="6" cy="6" r="6" transform="translate(241 224)" fill="#d08e3f"/>
  <circle id="Oval-9" data-name="Oval" cx="3" cy="3" r="3" transform="translate(0 149)" fill="#ffc72b"/>
  <circle id="Oval-10" data-name="Oval" cx="1" cy="1" r="1" transform="translate(13 75)" fill="#cad1ad"/>
  <circle id="Oval-11" data-name="Oval" cx="1" cy="1" r="1" transform="translate(1 98)" fill="#ffc72b"/>
  <circle id="Oval-12" data-name="Oval" cx="1" cy="1" r="1" transform="translate(45 148)" fill="#d08e3f"/>
  <circle id="Oval-13" data-name="Oval" cx="1" cy="1" r="1" transform="translate(254 43)" fill="#d08e3f"/>
  <circle id="Oval-14" data-name="Oval" cx="3" cy="3" r="3" transform="translate(42)" fill="#fff2e4"/>
  <circle id="Oval-15" data-name="Oval" cx="1" cy="1" r="1" transform="translate(35 44)" fill="#fff2e4"/>
</svg>
