<?xml version="1.0" encoding="UTF-8"?>
<svg width="65px" height="65px" viewBox="0 0 65 65" version="1.1" xmlns="http://www.w3.org/2000/svg" xmlns:xlink="http://www.w3.org/1999/xlink">
    <title>7BF21936-A6BD-46E4-8E1C-1C08CEC4D01F</title>
    <g id="Page-3" stroke="none" stroke-width="1" fill="none" fill-rule="evenodd">
        <g id="Home-YLN" transform="translate(-1227.000000, -2036.000000)">
            <g id="Group-9" transform="translate(-235.217101, 1856.372174)">
                <g id="social/fb" transform="translate(1463.000000, 180.000000)">
                    <rect id="Rectangle" x="0" y="0" width="64" height="64"></rect>
                    <g id="002-facebook" transform="translate(22.000000, 14.000000)" fill="#FFC72B" fill-rule="nonzero">
                        <path d="M14.7137739,5.97700192 L18,5.97700192 L18,0.253478877 C17.4330472,0.175485376 15.4832097,0 13.212399,0 C8.47429381,0 5.22856429,2.98025165 5.22856429,8.45779518 L5.22856429,13.4988751 L0,13.4988751 L0,19.8973419 L5.22856429,19.8973419 L5.22856429,35.9970002 L11.6390301,35.9970002 L11.6390301,19.8988418 L16.656112,19.8988418 L17.4525456,13.500375 L11.6375302,13.500375 L11.6375302,9.09224231 C11.6390301,7.24289643 12.1369886,5.97700192 14.7137739,5.97700192 L14.7137739,5.97700192 Z" id="Path"></path>
                    </g>
                </g>
            </g>
        </g>
    </g>
</svg>