<?xml version="1.0" encoding="UTF-8"?>
<svg width="32px" height="32px" viewBox="0 0 32 32" version="1.1" xmlns="http://www.w3.org/2000/svg" xmlns:xlink="http://www.w3.org/1999/xlink">
    <title>EC337AF1-BC24-4AF1-8257-3C193D20ECA9</title>
    <g id="Page-3" stroke="none" stroke-width="1" fill="none" fill-rule="evenodd">
        <g id="Home-YLN---About-us" transform="translate(-1470.000000, -2683.000000)">
            <g id="Group-14" transform="translate(370.000000, 2650.000000)">
                <g id="social/fb" transform="translate(1100.000000, 33.000000)">
                    <rect id="Rectangle" x="0" y="0" width="32" height="32"></rect>
                    <g id="002-facebook" transform="translate(11.000000, 7.000000)" fill="#2C2823" fill-rule="nonzero">
                        <path d="M7.35688693,2.98850096 L9,2.98850096 L9,0.126739438 C8.71652362,0.0877426881 7.74160487,0 6.60619948,0 C4.2371469,0 2.61428214,1.49012582 2.61428214,4.22889759 L2.61428214,6.74943755 L0,6.74943755 L0,9.94867094 L2.61428214,9.94867094 L2.61428214,17.9985001 L5.81951504,17.9985001 L5.81951504,9.94942088 L8.328056,9.94942088 L8.72627281,6.75018748 L5.8187651,6.75018748 L5.8187651,4.54612116 C5.81951504,3.62144821 6.06849429,2.98850096 7.35688693,2.98850096 L7.35688693,2.98850096 Z" id="Path"></path>
                    </g>
                </g>
            </g>
        </g>
    </g>
</svg>