<?xml version="1.0" encoding="UTF-8"?>
<svg width="24px" height="24px" viewBox="0 0 24 24" version="1.1" xmlns="http://www.w3.org/2000/svg" xmlns:xlink="http://www.w3.org/1999/xlink">
    <title>8E02A7C7-9053-4121-B62C-6E21EEA3D283</title>
    <g id="Page-3" stroke="none" stroke-width="1" fill="none" fill-rule="evenodd">
        <g id="Home-YLN---Jobs" transform="translate(-1176.000000, -208.000000)">
            <g id="Search" transform="translate(368.000000, 192.000000)">
                <g id="icon/fulltime" transform="translate(808.000000, 16.000000)">
                    <rect id="Rectangle" x="0" y="0" width="24" height="24"></rect>
                    <g id="001-wallet" transform="translate(2.000000, 1.000000)" fill="#FFC72B" fill-rule="nonzero">
                        <path d="M19.5678531,17.1818136 L16.2269903,17.1818136 C14.1217192,17.1818136 12.4088933,15.4689878 12.4088933,13.3637167 C12.4088933,11.2584456 14.1217192,9.54561974 16.2269903,9.54561974 L19.5678531,9.54561974 C19.8316607,9.54561974 20.045132,9.33214851 20.045132,9.06834085 L20.045132,7.6365489 C20.045132,6.63572634 19.2688323,5.82179736 18.28801,5.74286983 L15.5470233,0.955315517 C15.2930145,0.512533858 14.8828508,0.196063095 14.3920594,0.0646514409 C13.9035946,-0.0658653434 13.3928029,0.00268169586 12.9556141,0.25713797 L3.55934528,5.72747806 L1.90907084,5.72747806 C0.856211582,5.72747806 -1.27168671e-15,6.5836449 -1.27168671e-15,7.6365489 L-1.27168671e-15,19.0908845 C-1.27168671e-15,20.1437437 0.856166839,20.9999553 1.90907084,20.9999553 L18.1360611,20.9999553 C19.1889204,20.9999553 20.045132,20.1437885 20.045132,19.0908845 L20.045132,17.6590925 C20.045132,17.3952848 19.8316607,17.1818136 19.5678531,17.1818136 Z M16.1389351,3.91107101 L17.1788635,5.72747806 L13.0190157,5.72747806 L16.1389351,3.91107101 Z M5.45646961,5.72747806 L13.4361146,1.08207385 C13.6519125,0.955762952 13.9040421,0.922205328 14.1450306,0.986546479 C14.3887931,1.0517825 14.5920181,1.20932436 14.718329,1.42977557 L14.7193134,1.43152057 L7.34066306,5.72747806 L5.45646961,5.72747806 Z" id="Shape"></path>
                        <path d="M19.5678531,10.5001328 L16.2269903,10.5001328 C14.6479027,10.5001328 13.3634064,11.7846291 13.3634064,13.3637167 C13.3634064,14.9428042 14.6479027,16.2273006 16.2269903,16.2273006 L19.5678531,16.2273006 C20.3573968,16.2273006 20.999645,15.5850524 20.999645,14.7955086 L20.999645,11.9319247 C20.999645,11.142381 20.3573968,10.5001328 19.5678531,10.5001328 Z M16.2269903,14.3182297 C15.7008067,14.3182297 15.2724772,13.8899002 15.2724772,13.3637167 C15.2724772,12.8375331 15.7008067,12.4092036 16.2269903,12.4092036 C16.7531738,12.4092036 17.1815033,12.8375331 17.1815033,13.3637167 C17.1815481,13.8899002 16.7532186,14.3182297 16.2269903,14.3182297 Z" id="Shape"></path>
                    </g>
                </g>
            </g>
        </g>
    </g>
</svg>