<?xml version="1.0" encoding="UTF-8"?>
<svg width="24px" height="24px" viewBox="0 0 24 24" version="1.1" xmlns="http://www.w3.org/2000/svg" xmlns:xlink="http://www.w3.org/1999/xlink">
    <title>966E555A-0384-4895-AAA3-C1274C2DA5B9</title>
    <g id="Page-3" stroke="none" stroke-width="1" fill="none" fill-rule="evenodd">
        <g id="Home-YLN---Jobs" transform="translate(-1048.000000, -208.000000)">
            <g id="Search" transform="translate(368.000000, 192.000000)">
                <g id="icon/fulltime" transform="translate(680.000000, 16.000000)">
                    <rect id="Rectangle" x="0" y="0" width="24" height="24"></rect>
                    <g id="001-briefcase" transform="translate(1.000000, 2.000000)" fill="#FFC72B" fill-rule="nonzero">
                        <path d="M19.4430244,3.49280384 L14.7915504,3.49280384 L14.7915504,1.61847953 C14.7915504,0.726021669 14.0654859,0 13.1730281,0 L8.42396296,0 C7.5315051,0 6.80544059,0.726021669 6.80544059,1.61847953 L6.80544059,3.49280384 L2.15396666,3.49280384 C0.969035204,3.49280384 0.00499049839,4.45684855 0.00499049839,5.64178 C0.00499049839,6.71811023 -0.105238672,7.68472538 0.710405782,8.77176579 C1.17188601,9.38678715 1.80605718,9.82551896 2.54433129,10.0404508 L9.71346861,12.1277792 C10.4232108,12.3344 11.173566,12.3344857 11.8834367,12.1277792 L19.052574,10.0404508 C19.7908482,9.82547612 20.4250193,9.38678715 20.8864996,8.77176579 C21.7058283,7.67984154 21.5919148,6.70328734 21.5919148,5.64178 C21.5919577,4.45684855 20.6279558,3.49280384 19.4430244,3.49280384 Z M8.17634361,1.61847953 C8.17634361,1.48194616 8.28742959,1.37090302 8.42396296,1.37090302 L13.1730281,1.37090302 C13.3095614,1.37090302 13.4206474,1.481989 13.4206474,1.61847953 L13.4206474,3.49280384 L8.17634361,3.49280384 L8.17634361,1.61847953 Z" id="Shape"></path>
                        <path d="M19.43587,11.3566891 C11.7030773,13.6081403 11.8031961,13.65368 10.7984955,13.65368 C9.8009922,13.65368 10.0376443,13.6499956 2.1611639,11.3567319 C1.33069656,11.1148961 0.595207088,10.6691812 0.00503333911,10.0547168 L0.00503333911,16.6331663 C0.00503333911,17.8180977 0.969035204,18.7820996 2.1540095,18.7820996 L19.4430244,18.7820996 C20.6279558,18.7820996 21.5920005,17.8180977 21.5920005,16.6331663 L21.5920005,10.0547168 C21.0017839,10.6691384 20.2662945,11.1148961 19.43587,11.3566891 L19.43587,11.3566891 Z" id="Path"></path>
                    </g>
                </g>
            </g>
        </g>
    </g>
</svg>