<?xml version="1.0" encoding="UTF-8"?>
<svg width="64px" height="64px" viewBox="0 0 64 64" version="1.1" xmlns="http://www.w3.org/2000/svg" xmlns:xlink="http://www.w3.org/1999/xlink">
    <title>6F906173-3017-48FA-BFDE-87943CF3E588</title>
    <g id="Page-3" stroke="none" stroke-width="1" fill="none" fill-rule="evenodd">
        <g id="Home-YLN---Employer" transform="translate(-1374.000000, -2908.000000)">
            <g id="Group-9" transform="translate(370.000000, 2784.000000)">
                <g id="Group-8" transform="translate(902.000000, 92.000000)">
                    <g id="General-Recruitment" transform="translate(102.000000, 32.000000)">
                        <rect id="Rectangle" fill="#FFC72B" x="0" y="0" width="64" height="64" rx="19"></rect>
                        <g id="001-online-recruitment" transform="translate(21.000000, 18.000000)" fill="#EBEEF1" fill-rule="nonzero">
                            <path d="M10.12,1.38 C10.12,1.12608 10.32608,0.92 10.58,0.92 C10.83392,0.92 11.04,1.12608 11.04,1.38 C11.04,2.14084 11.65916,2.76 12.42,2.76 L14.26,2.76 L14.26,2.68134 C14.26,1.96512 13.98124,1.29168 13.47478,0.78522 C12.96832,0.27876 12.29534,4.08562073e-16 11.57866,4.08562073e-16 L11.42088,4.08562073e-16 C10.70466,4.08562073e-16 10.03122,0.27876 9.52476,0.78522 C9.01876,1.29168 8.74,1.96466 8.74,2.68134 L8.74,2.76 C9.50084,2.76 10.12,2.14084 10.12,1.38 Z" id="Path"></path>
                            <path d="M12.42,7.36 L12.42,7.25742 C12.14722,7.32274 11.86616,7.36 11.57866,7.36 L11.42088,7.36 C11.13338,7.36 10.85232,7.32274 10.57954,7.25742 L10.57954,7.36 C10.57954,7.86738 10.99216,8.28 11.49954,8.28 C12.00692,8.28 12.42,7.86738 12.42,7.36 Z" id="Path"></path>
                            <path d="M11.42134,6.44 L11.57912,6.44 C12.29534,6.44 12.96878,6.16124 13.47524,5.65478 C13.98124,5.14832 14.26,4.47534 14.26,3.75866 L14.26,3.68 L12.42,3.68 C11.66836,3.68 10.99998,3.31752 10.58,2.75862 C10.16002,3.31752 9.49164,3.68 8.74,3.68 L8.74,3.75866 C8.74,4.47488 9.01876,5.14832 9.52522,5.65478 C10.03168,6.16124 10.70466,6.44 11.42134,6.44 L11.42134,6.44 Z" id="Path"></path>
                            <path d="M13.34,24.38 C13.34,23.53682 13.61692,22.7378 14.12154,22.08 L8.87846,22.08 C9.38308,22.7378 9.66,23.53682 9.66,24.38 C9.66,25.22226 9.38722,26.02266 8.88352,26.68 L3.22,26.68 L3.22,27.6 L19.78,27.6 L19.78,26.68 L14.11648,26.68 C13.61278,26.02266 13.34,25.22226 13.34,24.38 Z" id="Path"></path>
                            <path d="M9.66,7.36 L8.79566,7.36 C8.2892,7.36 7.8131,7.55734 7.45522,7.91522 C7.09734,8.2731 6.9,8.74966 6.9,9.25566 L6.9,11.04 L16.1,11.04 L16.1,9.25566 C16.1,8.7492 15.90266,8.2731 15.54478,7.91522 C15.1869,7.55734 14.71034,7.36 14.20434,7.36 L13.34,7.36 C13.34,8.37476 12.51476,9.2 11.5,9.2 C10.48524,9.2 9.66,8.37476 9.66,7.36 Z" id="Path"></path>
                            <polygon id="Path" points="7.36 13.8 21.16 13.8 21.16 15.64 7.36 15.64"></polygon>
                            <path d="M21.62,5.52 L14.71862,5.52 C14.559,5.80382 14.36212,6.06878 14.12522,6.30522 C14.07738,6.35306 14.02632,6.39538 13.97664,6.44 L14.20434,6.44 C14.95644,6.44 15.66346,6.73302 16.19522,7.26478 C16.72698,7.79654 17.02,8.50356 17.02,9.25566 L17.02,11.5 C17.02,11.75392 16.81392,11.96 16.56,11.96 L6.44,11.96 C6.18608,11.96 5.98,11.75392 5.98,11.5 L5.98,9.25566 C5.98,8.50356 6.27302,7.79654 6.80478,7.26478 C7.33654,6.73302 8.04356,6.44 8.79566,6.44 L9.02336,6.44 C8.97368,6.39538 8.92262,6.35306 8.87478,6.30522 C8.63834,6.06878 8.44146,5.80382 8.28138,5.52 L1.38,5.52 C0.61916,5.52 0,6.13916 0,6.9 L0,17.48 L23,17.48 L23,6.9 C23,6.13916 22.38084,5.52 21.62,5.52 Z M22.08,16.1 C22.08,16.35392 21.87392,16.56 21.62,16.56 L1.38,16.56 C1.12608,16.56 0.92,16.35392 0.92,16.1 L0.92,13.34 C0.92,13.08608 1.12608,12.88 1.38,12.88 L21.62,12.88 C21.87392,12.88 22.08,13.08608 22.08,13.34 L22.08,16.1 Z" id="Shape"></path>
                            <polygon id="Path" points="1.84 13.8 6.44 13.8 6.44 15.64 1.84 15.64"></polygon>
                            <path d="M0,19.78 C0,20.54084 0.61916,21.16 1.38,21.16 L21.62,21.16 C22.38084,21.16 23,20.54084 23,19.78 L23,18.4 L0,18.4 L0,19.78 Z M21.16,19.32 L22.08,19.32 L22.08,20.24 L21.16,20.24 L21.16,19.32 Z" id="Shape"></path>
                        </g>
                    </g>
                </g>
            </g>
        </g>
    </g>
</svg>