<?xml version="1.0" encoding="UTF-8"?>
<svg width="119px" height="18px" viewBox="0 0 119 18" version="1.1" xmlns="http://www.w3.org/2000/svg" xmlns:xlink="http://www.w3.org/1999/xlink">
    <title>EA8B899F-C600-44D9-A740-A32F747769B5</title>
    <g id="Page-3" stroke="none" stroke-width="1" fill="none" fill-rule="evenodd">
        <g id="Home-YLN" transform="translate(-672.000000, -1454.000000)" fill="#FFC72B" fill-rule="nonzero">
            <g id="Group-8" transform="translate(227.000000, 1287.000000)">
                <g id="Group-6" transform="translate(445.000000, 167.000000)">
                    <g id="icon/rating" transform="translate(-0.000000, 0.000000)">
                        <path d="M18.7340267,6.80117827 C18.6103533,6.42084311 18.2730101,6.15157038 17.8754781,6.11560047 L12.4533373,5.62334302 L10.3104767,0.606472673 C10.1522665,0.237888619 9.79228079,0 9.3915961,0 C8.99091141,0 8.63078241,0.237888619 8.4735753,0.606472673 L6.33071476,5.62334302 L0.907714095,6.11560047 C0.510182131,6.15228691 0.173555413,6.42155964 0.0491654605,6.80117827 C-0.0745079694,7.18151347 0.0397072199,7.5986784 0.340364059,7.86236217 L4.43907031,11.4563433 L3.23056748,16.7790295 C3.14214744,17.1703993 3.29405218,17.5750965 3.6187845,17.8098324 C3.79333171,17.9366586 3.99840313,18 4.20419112,18 C4.38103123,18 4.55801464,17.9529955 4.71608157,17.8584133 L9.3915961,15.0627921 L14.0662508,17.8584133 C14.409183,18.0633414 14.8403919,18.0445683 15.1644077,17.8098324 C15.48914,17.5750965 15.6410448,17.1703993 15.5526247,16.7790295 L14.3441219,11.4563433 L18.4428281,7.86236217 C18.7433416,7.5986784 18.8577002,7.18237333 18.7340267,6.80117827 Z" id="Path"></path>
                    </g>
                    <g id="icon/rating" transform="translate(25.044226, 0.000000)">
                        <path d="M18.7340267,6.80117827 C18.6103533,6.42084311 18.2730101,6.15157038 17.8754781,6.11560047 L12.4533373,5.62334302 L10.3104767,0.606472673 C10.1522665,0.237888619 9.79228079,0 9.3915961,0 C8.99091141,0 8.63078241,0.237888619 8.4735753,0.606472673 L6.33071476,5.62334302 L0.907714095,6.11560047 C0.510182131,6.15228691 0.173555413,6.42155964 0.0491654605,6.80117827 C-0.0745079694,7.18151347 0.0397072199,7.5986784 0.340364059,7.86236217 L4.43907031,11.4563433 L3.23056748,16.7790295 C3.14214744,17.1703993 3.29405218,17.5750965 3.6187845,17.8098324 C3.79333171,17.9366586 3.99840313,18 4.20419112,18 C4.38103123,18 4.55801464,17.9529955 4.71608157,17.8584133 L9.3915961,15.0627921 L14.0662508,17.8584133 C14.409183,18.0633414 14.8403919,18.0445683 15.1644077,17.8098324 C15.48914,17.5750965 15.6410448,17.1703993 15.5526247,16.7790295 L14.3441219,11.4563433 L18.4428281,7.86236217 C18.7433416,7.5986784 18.8577002,7.18237333 18.7340267,6.80117827 Z" id="Path"></path>
                    </g>
                    <g id="icon/rating" transform="translate(50.088452, 0.000000)">
                        <path d="M18.7340267,6.80117827 C18.6103533,6.42084311 18.2730101,6.15157038 17.8754781,6.11560047 L12.4533373,5.62334302 L10.3104767,0.606472673 C10.1522665,0.237888619 9.79228079,0 9.3915961,0 C8.99091141,0 8.63078241,0.237888619 8.4735753,0.606472673 L6.33071476,5.62334302 L0.907714095,6.11560047 C0.510182131,6.15228691 0.173555413,6.42155964 0.0491654605,6.80117827 C-0.0745079694,7.18151347 0.0397072199,7.5986784 0.340364059,7.86236217 L4.43907031,11.4563433 L3.23056748,16.7790295 C3.14214744,17.1703993 3.29405218,17.5750965 3.6187845,17.8098324 C3.79333171,17.9366586 3.99840313,18 4.20419112,18 C4.38103123,18 4.55801464,17.9529955 4.71608157,17.8584133 L9.3915961,15.0627921 L14.0662508,17.8584133 C14.409183,18.0633414 14.8403919,18.0445683 15.1644077,17.8098324 C15.48914,17.5750965 15.6410448,17.1703993 15.5526247,16.7790295 L14.3441219,11.4563433 L18.4428281,7.86236217 C18.7433416,7.5986784 18.8577002,7.18237333 18.7340267,6.80117827 Z" id="Path"></path>
                    </g>
                    <g id="icon/rating" transform="translate(75.132679, 0.000000)">
                        <path d="M18.7340267,6.80117827 C18.6103533,6.42084311 18.2730101,6.15157038 17.8754781,6.11560047 L12.4533373,5.62334302 L10.3104767,0.606472673 C10.1522665,0.237888619 9.79228079,0 9.3915961,0 C8.99091141,0 8.63078241,0.237888619 8.4735753,0.606472673 L6.33071476,5.62334302 L0.907714095,6.11560047 C0.510182131,6.15228691 0.173555413,6.42155964 0.0491654605,6.80117827 C-0.0745079694,7.18151347 0.0397072199,7.5986784 0.340364059,7.86236217 L4.43907031,11.4563433 L3.23056748,16.7790295 C3.14214744,17.1703993 3.29405218,17.5750965 3.6187845,17.8098324 C3.79333171,17.9366586 3.99840313,18 4.20419112,18 C4.38103123,18 4.55801464,17.9529955 4.71608157,17.8584133 L9.3915961,15.0627921 L14.0662508,17.8584133 C14.409183,18.0633414 14.8403919,18.0445683 15.1644077,17.8098324 C15.48914,17.5750965 15.6410448,17.1703993 15.5526247,16.7790295 L14.3441219,11.4563433 L18.4428281,7.86236217 C18.7433416,7.5986784 18.8577002,7.18237333 18.7340267,6.80117827 Z" id="Path"></path>
                    </g>
                    <g id="icon/rating" transform="translate(100.176905, 0.000000)">
                        <path d="M18.7340267,6.80117827 C18.6103533,6.42084311 18.2730101,6.15157038 17.8754781,6.11560047 L12.4533373,5.62334302 L10.3104767,0.606472673 C10.1522665,0.237888619 9.79228079,0 9.3915961,0 C8.99091141,0 8.63078241,0.237888619 8.4735753,0.606472673 L6.33071476,5.62334302 L0.907714095,6.11560047 C0.510182131,6.15228691 0.173555413,6.42155964 0.0491654605,6.80117827 C-0.0745079694,7.18151347 0.0397072199,7.5986784 0.340364059,7.86236217 L4.43907031,11.4563433 L3.23056748,16.7790295 C3.14214744,17.1703993 3.29405218,17.5750965 3.6187845,17.8098324 C3.79333171,17.9366586 3.99840313,18 4.20419112,18 C4.38103123,18 4.55801464,17.9529955 4.71608157,17.8584133 L9.3915961,15.0627921 L14.0662508,17.8584133 C14.409183,18.0633414 14.8403919,18.0445683 15.1644077,17.8098324 C15.48914,17.5750965 15.6410448,17.1703993 15.5526247,16.7790295 L14.3441219,11.4563433 L18.4428281,7.86236217 C18.7433416,7.5986784 18.8577002,7.18237333 18.7340267,6.80117827 Z" id="Path"></path>
                    </g>
                </g>
            </g>
        </g>
    </g>
</svg>