<?xml version="1.0" encoding="UTF-8"?>
<svg width="64px" height="64px" viewBox="0 0 64 64" version="1.1" xmlns="http://www.w3.org/2000/svg" xmlns:xlink="http://www.w3.org/1999/xlink">
    <title>5E381252-3922-480B-B523-940D231433CC</title>
    <g id="Page-3" stroke="none" stroke-width="1" fill="none" fill-rule="evenodd">
        <g id="Home-YLN---Employer" transform="translate(-1072.000000, -3154.000000)">
            <g id="Group-9" transform="translate(370.000000, 2784.000000)">
                <g id="Group-8" transform="translate(600.000000, 338.000000)">
                    <g id="Industry-Specific-and-Company-Events" transform="translate(102.000000, 32.000000)">
                        <rect id="Rectangle" fill="#FFC72B" x="0" y="0" width="64" height="64" rx="19"></rect>
                        <g id="001-event" transform="translate(20.000000, 19.000000)" fill="#EBEEF1" fill-rule="nonzero">
                            <path d="M5.02704258,4.21618517 L6.97298852,4.21618517 C7.06256647,4.21618517 7.13513516,4.1435544 7.13513516,4.05403853 L7.13513516,0.162146643 C7.13513516,0.0725686926 7.06256647,0 6.97298852,0 L5.02704258,0 C4.93746463,0 4.86489593,0.0726307702 4.86489593,0.162146643 L4.86489593,4.05403853 C4.86489593,4.14361648 4.93746463,4.21618517 5.02704258,4.21618517 Z" id="Path"></path>
                            <path d="M22.5080895,2.91888788 L20.1081081,2.91888788 L20.1081081,3.95670088 C20.1081081,4.57294503 19.6540727,5.1891271 19.0378285,5.1891271 L17.1243492,5.1891271 C16.4640299,5.14232061 15.9387294,4.61702011 15.8919229,3.95670088 L15.8919229,2.91888788 L8.10813917,2.91888788 L8.10813917,3.95670088 C8.06133268,4.61702011 7.53603218,5.14232061 6.87571295,5.1891271 L4.9621715,5.1891271 C4.34592735,5.1891271 3.89189192,4.57288295 3.89189192,3.95670088 L3.89189192,2.91888788 L1.49191055,2.91888788 C0.662740298,2.93657999 0,3.61390848 0,4.44326496 L0,8.43243242 L23.999938,8.43243242 L23.999938,4.44326496 C24.0001862,3.61390848 23.3372597,2.93657999 22.5080895,2.91888788 Z" id="Path"></path>
                            <path d="M17.0270115,4.21618517 L18.9729575,4.21618517 C19.0625354,4.21618517 19.1351041,4.1435544 19.1351041,4.05403853 L19.1351041,0.162146643 C19.1351041,0.0725686926 19.0624733,0 18.9729575,0 L17.0270115,0 C16.9374336,0 16.8648649,0.0726307702 16.8648649,0.162146643 L16.8648649,4.05403853 C16.8648649,4.14361648 16.9374336,4.21618517 17.0270115,4.21618517 Z" id="Path"></path>
                            <path d="M9.56758311,18.0972911 L9.11354768,20.7242901 L11.448658,19.4918639 L11.6756757,19.4269929 L11.9026934,19.4918639 L14.2378037,20.7242901 L13.7837683,18.0972911 C13.7664486,17.9448285 13.8134414,17.7920556 13.9135104,17.6756601 L15.8270519,15.8594563 L13.2000528,15.470292 C13.0464728,15.4457713 12.9139372,15.3493648 12.8432929,15.2108077 L11.6757378,12.8432308 L10.5081826,15.2108077 C10.4375383,15.3493648 10.3050027,15.4457713 10.1514228,15.470292 L7.52442368,15.8594563 L9.43796512,17.6756601 C9.53791003,17.7919935 9.58490276,17.9447664 9.56758311,18.0972911 Z" id="Path"></path>
                            <path d="M3.92284562e-08,23.1891426 C0.0176300723,24.0003724 0.680432408,24.6487728 1.49191055,24.6485866 L22.5080895,24.6485866 C23.3195056,24.6487728 23.9823079,24.0003724 24,23.1891426 L24,9.40537435 L3.92284562e-08,9.40537435 L3.92284562e-08,23.1891426 Z M6.03245109,15.3729543 C6.08422379,15.1957849 6.23805203,15.0675947 6.42161544,15.048661 L9.76213425,14.5297545 L11.2540448,11.513529 C11.3880703,11.280676 11.685546,11.2005959 11.918399,11.3346214 C11.992768,11.377455 12.0544731,11.4391601 12.0973066,11.513529 L13.5892171,14.5297545 L16.9297359,15.048661 C17.1132994,15.0675947 17.2671897,15.195847 17.3189003,15.3729543 C17.3777499,15.5464612 17.3265979,15.7382809 17.1891582,15.8594563 L14.7891768,18.1945666 L15.3729544,21.5350854 C15.3954885,21.7105788 15.3209334,21.8844581 15.1783411,21.9891209 C15.0931086,22.0503294 14.9913635,22.0842237 14.8864524,22.0863964 C14.805317,22.0940941 14.7242436,22.0709391 14.6594346,22.0215254 L11.6756757,20.4647438 L8.69191675,22.0215254 C8.52927348,22.1206012 8.32205852,22.107689 8.17301025,21.9891209 C8.03041804,21.884396 7.95592494,21.7105167 7.97839703,21.5350854 L8.5621746,18.1945666 L6.16219323,15.8594563 C6.02475346,15.7382809 5.97360154,15.5463991 6.03245109,15.3729543 Z" id="Shape"></path>
                        </g>
                    </g>
                </g>
            </g>
        </g>
    </g>
</svg>