<?xml version="1.0" encoding="UTF-8"?>
<svg width="32px" height="32px" viewBox="0 0 32 32" version="1.1" xmlns="http://www.w3.org/2000/svg" xmlns:xlink="http://www.w3.org/1999/xlink">
    <title>79D7FA37-4EAC-48AE-AA03-84F5BD73AD82</title>
    <g id="Page-3" stroke="none" stroke-width="1" fill="none" fill-rule="evenodd">
        <g id="Home-YLN---About-us" transform="translate(-1372.000000, -2683.000000)">
            <g id="Group-14" transform="translate(370.000000, 2650.000000)">
                <g id="social/insta" transform="translate(1002.000000, 33.000000)">
                    <rect id="Rectangle" x="0" y="0" width="32" height="32"></rect>
                    <g id="001-instagram" transform="translate(8.000000, 8.000000)" fill="#2C2823" fill-rule="nonzero">
                        <path d="M11.6689453,0 L4.33105469,0 C1.94287109,0 0,1.94287109 0,4.33105469 L0,11.6690674 C0,14.0571289 1.94287109,16 4.33105469,16 L11.6690674,16 C14.0571289,16 16,14.0571289 16,11.6690674 L16,4.33105469 C16,1.94287109 14.0571289,0 11.6689453,0 Z M8,12.3748779 C5.5876465,12.3748779 3.62512206,10.4123535 3.62512206,8 C3.62512206,5.5876465 5.5876465,3.62512206 8,3.62512206 C10.4123535,3.62512206 12.3748779,5.5876465 12.3748779,8 C12.3748779,10.4123535 10.4123535,12.3748779 8,12.3748779 L8,12.3748779 Z M12.4794922,4.65686034 C11.7666016,4.65686034 11.1867676,4.07702638 11.1867676,3.36413575 C11.1867676,2.65124513 11.7666016,2.07128906 12.4794922,2.07128906 C13.1923828,2.07128906 13.7723389,2.65124513 13.7723389,3.36413575 C13.7723389,4.07702638 13.1923828,4.65686034 12.4794922,4.65686034 Z" id="Shape"></path>
                        <path d="M8,4.56311034 C6.10498047,4.56311034 4.56311034,6.10485841 4.56311034,8 C4.56311034,9.89501953 6.10498047,11.4368897 8,11.4368897 C9.89514159,11.4368897 11.4368897,9.89501953 11.4368897,8 C11.4368897,6.10485841 9.89514159,4.56311034 8,4.56311034 Z" id="Path"></path>
                        <path d="M12.4794922,3.00939941 C12.2839356,3.00939941 12.1247559,3.16857909 12.1247559,3.36413575 C12.1247559,3.55969237 12.2839356,3.71887206 12.4794922,3.71887206 C12.6751709,3.71887206 12.8343506,3.55981444 12.8343506,3.36413575 C12.8343506,3.16845703 12.6751709,3.00939941 12.4794922,3.00939941 Z" id="Path"></path>
                    </g>
                </g>
            </g>
        </g>
    </g>
</svg>