<?xml version="1.0" encoding="UTF-8"?>
<svg width="32px" height="32px" viewBox="0 0 32 32" version="1.1" xmlns="http://www.w3.org/2000/svg" xmlns:xlink="http://www.w3.org/1999/xlink">
    <title>F6DCF709-89F8-44E5-805A-9DC0336E3223</title>
    <g id="Page-3" stroke="none" stroke-width="1" fill="none" fill-rule="evenodd">
        <g id="Home-YLN---About-us" transform="translate(-1421.000000, -2683.000000)">
            <g id="Group-14" transform="translate(370.000000, 2650.000000)">
                <g id="social/linkedin" transform="translate(1051.000000, 33.000000)">
                    <rect id="Rectangle" x="0" y="0" width="32" height="32"></rect>
                    <g id="003-linkedin" transform="translate(8.000000, 8.000000)" fill="#2C2823" fill-rule="nonzero">
                        <path d="M15.996,16 L15.996,15.9993333 L16,15.9993333 L16,10.1313333 C16,7.26066667 15.382,5.04933333 12.026,5.04933333 C10.4126667,5.04933333 9.33,5.93466667 8.888,6.774 L8.84133333,6.774 L8.84133333,5.31733333 L5.65933333,5.31733333 L5.65933333,15.9993333 L8.97266667,15.9993333 L8.97266667,10.71 C8.97266667,9.31733333 9.23666667,7.97066667 10.9613333,7.97066667 C12.6606667,7.97066667 12.686,9.56 12.686,10.7993333 L12.686,16 L15.996,16 Z" id="Path"></path>
                        <polygon id="Path" points="0.264 5.318 3.58133333 5.318 3.58133333 16 0.264 16"></polygon>
                        <path d="M1.92133333,0 C0.860666667,0 0,0.860666667 0,1.92133333 C0,2.982 0.860666667,3.86066667 1.92133333,3.86066667 C2.982,3.86066667 3.84266667,2.982 3.84266667,1.92133333 C3.842,0.860666667 2.98133333,0 1.92133333,0 Z" id="Path"></path>
                    </g>
                </g>
            </g>
        </g>
    </g>
</svg>