<?xml version="1.0" encoding="UTF-8"?>
<svg width="65px" height="65px" viewBox="0 0 65 65" version="1.1" xmlns="http://www.w3.org/2000/svg" xmlns:xlink="http://www.w3.org/1999/xlink">
    <title>12DE34CF-C139-48A5-A2DA-8F7F940F4E86</title>
    <g id="Page-3" stroke="none" stroke-width="1" fill="none" fill-rule="evenodd">
        <g id="Home-YLN" transform="translate(-1361.000000, -2036.000000)">
            <g id="Group-9" transform="translate(-235.217101, 1856.372174)">
                <g id="social/linkedin" transform="translate(1597.000000, 180.000000)">
                    <rect id="Rectangle" x="0" y="0" width="64" height="64"></rect>
                    <g id="003-linkedin" transform="translate(12.000000, 10.000000)" fill="#FFC72B" fill-rule="nonzero">
                        <path d="M39.9899426,40 L39.9899426,39.9982954 L40,39.9982954 L40,24.9942774 C40,17.6542067 38.446135,12 30.0079943,12 C25.9515183,12 23.2293211,14.2637282 22.1179808,16.4098381 L22.0006447,16.4098381 L22.0006447,12.6852551 L14,12.6852551 L14,39.9982954 L22.330862,39.9982954 L22.330862,26.4738829 C22.330862,22.9129429 22.994649,19.4696213 27.3310554,19.4696213 C31.6037651,19.4696213 31.6674618,23.5334226 31.6674618,26.7023012 L31.6674618,40 L39.9899426,40 Z" id="Path"></path>
                        <polygon id="Path" points="1.78492448e-16 14 8 14 8 40 0 40"></polygon>
                        <path d="M5,0 C2.23976405,0 0,2.22932136 0,4.97668796 C0,7.72405457 2.23976405,10 5,10 C7.76023595,10 10,7.72405457 10,4.97668796 C9.99826509,2.22932136 7.75850104,0 5,0 Z" id="Path"></path>
                    </g>
                </g>
            </g>
        </g>
    </g>
</svg>