<?xml version="1.0" encoding="UTF-8"?>
<svg width="24px" height="24px" viewBox="0 0 24 24" version="1.1" xmlns="http://www.w3.org/2000/svg" xmlns:xlink="http://www.w3.org/1999/xlink">
    <title>F33054BB-FF6A-41D2-A941-BDC00DBFC051</title>
    <g id="Page-3" stroke="none" stroke-width="1" fill="none" fill-rule="evenodd">
        <g id="Home-YLN---Jobs" transform="translate(-832.000000, -208.000000)">
            <g id="Search" transform="translate(368.000000, 192.000000)">
                <g id="icon/placeholder" transform="translate(464.000000, 16.000000)">
                    <rect id="Rectangle" x="0" y="0" width="24" height="24"></rect>
                    <g id="001-maps-and-flags" transform="translate(4.000000, 1.000000)" fill="#FFC72B" fill-rule="nonzero">
                        <path d="M8.191901,0 C3.67486239,0 0,3.67486239 0,8.19185682 C0,13.7975881 7.33094889,22.0271292 7.64307054,22.3747263 C7.93623957,22.7012502 8.44809257,22.7006758 8.74073146,22.3747263 C9.05285311,22.0271292 16.383802,13.7975881 16.383802,8.19185682 C16.383802,3.67486239 12.7088954,0 8.191901,0 Z M8.191901,12.3134088 C5.91926664,12.3134088 4.07039319,10.4644912 4.07039319,8.19185682 C4.07039319,5.91922246 5.91931082,4.07034901 8.191901,4.07034901 C10.4644912,4.07034901 12.3133646,5.91926664 12.3133646,8.191901 C12.3133646,10.4645354 10.4644912,12.3134088 8.191901,12.3134088 Z" id="Shape"></path>
                    </g>
                </g>
            </g>
        </g>
    </g>
</svg>