<?xml version="1.0" encoding="UTF-8"?>
<svg width="16px" height="16px" viewBox="0 0 16 16" version="1.1" xmlns="http://www.w3.org/2000/svg" xmlns:xlink="http://www.w3.org/1999/xlink">
    <title>D77727A0-9E45-4B91-BA6B-E107552D9C9C</title>
    <g id="Page-3" stroke="none" stroke-width="1" fill="none" fill-rule="evenodd">
        <g id="Home-YLN---Posting-a-job-2-4" transform="translate(-914.000000, -492.000000)">
            <g id="Description" transform="translate(770.000000, 228.000000)">
                <g id="icon/placeholder" transform="translate(144.000000, 264.000000)">
                    <rect id="Rectangle" x="0" y="0" width="16" height="16"></rect>
                    <g id="001-maps-and-flags" transform="translate(2.666667, 0.666667)" fill="#B4B4B4" fill-rule="nonzero">
                        <path d="M5.46126733,0 C2.44990826,0 0,2.44990826 0,5.46123788 C0,9.19839207 4.88729926,14.6847528 5.09538036,14.9164842 C5.29082638,15.1341668 5.63206171,15.1337839 5.82715431,14.9164842 C6.03523541,14.6847528 10.9225347,9.19839207 10.9225347,5.46123788 C10.9225347,2.44990826 8.47259695,0 5.46126733,0 Z M5.46126733,8.2089392 C3.94617776,8.2089392 2.71359546,6.97632745 2.71359546,5.46123788 C2.71359546,3.94614831 3.94620721,2.71356601 5.46126733,2.71356601 C6.97632745,2.71356601 8.20890975,3.94617776 8.20890975,5.46126733 C8.20890975,6.97635691 6.97632745,8.2089392 5.46126733,8.2089392 Z" id="Shape"></path>
                    </g>
                </g>
            </g>
        </g>
    </g>
</svg>