<svg id="logo" xmlns="http://www.w3.org/2000/svg" width="95" height="58" viewBox="0 0 95 58">
  <path id="Combined_Shape" data-name="Combined Shape" d="M30.179,55.806a2.15,2.15,0,0,1,2.2-2.194A2.089,2.089,0,0,1,34.2,54.639l-.284.17a1.728,1.728,0,0,0-1.536-.887,1.884,1.884,0,1,0,.024,3.768,1.591,1.591,0,0,0,1.718-1.435h-1.8v-.3H34.45v.164A1.9,1.9,0,0,1,32.405,58,2.161,2.161,0,0,1,30.179,55.806Zm-8.009.7V53.679h.32v2.832a1.232,1.232,0,0,0,2.462,0V53.679h.32v2.832a1.553,1.553,0,0,1-3.1,0Zm-5.117-.7A2.184,2.184,0,1,1,19.236,58,2.165,2.165,0,0,1,17.052,55.806Zm.32,0a1.863,1.863,0,1,0,1.863-1.885A1.853,1.853,0,0,0,17.373,55.806Zm62.6-.033a2.152,2.152,0,1,1,2.152,2.161A2.134,2.134,0,0,1,79.976,55.773Zm.316,0a1.837,1.837,0,1,0,1.836-1.856A1.826,1.826,0,0,0,80.292,55.773ZM58.534,56.947l.274-.162a1.188,1.188,0,0,0,1.252.844c.647,0,1.049-.32,1.049-.838s-.468-.7-1.079-.9L60,55.885l-.052-.017c-.613-.2-1.246-.407-1.246-1.13a1.149,1.149,0,0,1,1.264-1.125,1.408,1.408,0,0,1,1.341.88l-.268.149a1.093,1.093,0,0,0-1.073-.724.836.836,0,0,0-.942.808c0,.519.472.675,1.02.856l.027.009.054.018c.738.248,1.3.492,1.3,1.176s-.538,1.149-1.372,1.149A1.491,1.491,0,0,1,58.534,56.947Zm-31.949.987h-.319V53.679h.278l2.5,3.659V53.679h.32v4.253h-.284l-2.5-3.659v3.659h0Zm-21.494,0H4.772V53.679h.32v1.914H7.555V53.679h.32v4.253h-.32V55.9H5.092v2.036h0Zm10.073,0h-.32v-1.75l-1.543-2.5h.364l1.343,2.194,1.336-2.194h.364l-1.543,2.5v1.75h0Zm-3.8,0H8.928V53.679h2.408v.3H9.248v1.653h1.936v.3H9.248v1.689h2.117v.3h0Zm-8.59,0H2.449v-3.95H1.118v-.3H4.106v.3H2.776v3.949h0Zm86.275-.064h-.315v-4.19h.316v1.951l2.033-1.951h.423L89.4,55.714l2.169,2.153-.422,0L89.05,55.8v2.066h0Zm-3.655,0H85.08v-4.19h1.645a1.236,1.236,0,0,1,.316,2.431l1.037,1.759h-.363l-1-1.718H85.4v1.718h0Zm0-2.018h1.329a.937.937,0,0,0,0-1.874H85.4Zm-9.833,2.018h-.381l-1.211-4.19H74.3l1.079,3.766,1.163-3.766h.376l1.168,3.766,1.074-3.766H79.5l-1.211,4.189h-.382l-1.169-3.777-1.174,3.777h0Zm-11.448,0H63.8v-4.19h.274l2.468,3.6v-3.6h.316v4.189h-.28l-2.462-3.6v3.6h0Zm-8.67,0H55.13v-4.19h1.645a1.236,1.236,0,0,1,.317,2.431l1.036,1.759h-.363l-1-1.718H55.445v1.718h0Zm0-2.018h1.329a.937.937,0,0,0,0-1.874H55.445ZM43.77,57.869h-.333l1.622-4.19h.334l1.615,4.189h-.333L46.269,56.8H44.177l-.406,1.066h0ZM44.3,56.5h1.86l-.93-2.436Zm28.03,1.365H72V53.978H70.691v-.3h2.946v.3H72.326v3.89h0Zm-2.028,0H67.9v-4.19h2.373v.3H68.211v1.628h1.908v.3H68.211v1.664H70.3v.3h0Zm-15.944,0h-2.4v-4.19h2.373v.3H52.268v1.628h1.908v.3H52.268v1.664h2.087v.3h0Zm-6.737,0v-4.19h1.569a2.1,2.1,0,0,1,0,4.19Zm.317-.3h1.252a1.8,1.8,0,0,0,0-3.591H47.933Zm-4.843.3h-2.4v-4.19h2.373v.3H41v1.628h1.908v.3H41v1.664h2.087v.3h0Zm-3.059,0H37.749v-4.19h.316v3.891h1.967v.3h0ZM92.5,55.846v-.224h2.272V.224H.223v55.4H1.3v.224H0V0H95V55.846Z" fill="#1a1717"/>
  <path id="Path" d="M0,.285S4.1.062,5.651,3.316l6.47,13.446a26,26,0,0,1,2.572,11.274v8.438s.16,5.179-6.07,5.207V42H30v-.32s-6.181-.376-6.265-5.207V22.921a9,9,0,0,0-.785-3.675L15.823,3.316S14.247,0,7.912,0H0Z" transform="translate(1 5)" fill="#2c2823"/>
  <path id="Combined_Shape-2" data-name="Combined Shape" d="M0,0V.289S4.469,1.007,2.823,6H3S6.855.289,13,.289V0Z" transform="translate(27 4)" fill="#2c2823"/>
  <path id="Path_3" data-name="Path 3" d="M5.71,0V29.25S5.85,35.092,0,35.656C0,35.819,0,36,0,36H21v-.344s-6.155-.3-6.155-6.406V0Z" transform="translate(33 11)" fill="#2c2823"/>
  <path id="Path_4" data-name="Path 4" d="M0,0V.392S3.382,0,6.706,5.526c2.82,5.621,16.765,33.923,16.765,33.923A6.32,6.32,0,0,0,28.523,42H38v-.338s-4.623.118-6.327-4.083C29.629,33.358,15.345,4.421,15.345,4.421A7.99,7.99,0,0,0,7.824,0Z" transform="translate(49 5)" fill="#2c2823"/>
  <path id="Combined_Shape-3" data-name="Combined Shape" d="M6.091,21V5.973h.227V21Zm0-15.026C6.091.915,0,.373,0,.373V0H12V.373c-5.327,0-5.682,5.6-5.682,5.6Z" transform="translate(79 5)" fill="#2c2823"/>
  <path id="Path_6" data-name="Path 6" d="M9,0H8.6S7.591,5.763,0,5.763V6H9Z" transform="translate(55 41)" fill="#2c2823"/>
</svg>
