<?xml version="1.0" encoding="UTF-8"?>
<svg width="16px" height="16px" viewBox="0 0 16 16" version="1.1" xmlns="http://www.w3.org/2000/svg" xmlns:xlink="http://www.w3.org/1999/xlink">
    <title>1A252D18-FCC5-409A-A6FD-37C1B22FCEC2</title>
    <g id="Page-3" stroke="none" stroke-width="1" fill="none" fill-rule="evenodd">
        <g id="Home-YLN---Posting-a-job-2-4" transform="translate(-802.000000, -492.000000)">
            <g id="Description" transform="translate(770.000000, 228.000000)">
                <g id="icon/placeholder" transform="translate(32.000000, 264.000000)">
                    <rect id="Rectangle" x="0" y="1.13686838e-13" width="16" height="16"></rect>
                    <g id="001-business-and-trade" transform="translate(1.000000, 1.000000)" fill="#FFC72B" fill-rule="nonzero">
                        <path d="M7.60083333,0.987001129 L1.19,0.0128344626 C0.8925,-0.033832204 0.589166667,0.0478344626 0.361666667,0.240334463 C0.134166667,0.438667796 -1.55431223e-15,0.724501129 -1.55431223e-15,1.02200113 L-1.55431223e-15,13.3128345 C-1.55431223e-15,13.6336678 0.2625,13.8961678 0.583333333,13.8961678 L2.47916667,13.8961678 L2.47916667,10.8336678 C2.47916667,10.2678345 2.93416667,9.81283446 3.5,9.81283446 L4.95833333,9.81283446 C5.52416667,9.81283446 5.97916667,10.2678345 5.97916667,10.8336678 L5.97916667,13.8961678 L8.45833333,13.8961678 L8.45833333,1.9961678 C8.45833333,1.49450113 8.09666667,1.0686678 7.60083333,0.987001129 Z M3.20833333,8.50033446 L2.33333333,8.50033446 C2.09183333,8.50033446 1.89583333,8.30433446 1.89583333,8.06283446 C1.89583333,7.82133446 2.09183333,7.62533446 2.33333333,7.62533446 L3.20833333,7.62533446 C3.44983333,7.62533446 3.64583333,7.82133446 3.64583333,8.06283446 C3.64583333,8.30433446 3.44983333,8.50033446 3.20833333,8.50033446 Z M3.20833333,6.75033446 L2.33333333,6.75033446 C2.09183333,6.75033446 1.89583333,6.55433446 1.89583333,6.31283446 C1.89583333,6.07133446 2.09183333,5.87533446 2.33333333,5.87533446 L3.20833333,5.87533446 C3.44983333,5.87533446 3.64583333,6.07133446 3.64583333,6.31283446 C3.64583333,6.55433446 3.44983333,6.75033446 3.20833333,6.75033446 Z M3.20833333,5.00033446 L2.33333333,5.00033446 C2.09183333,5.00033446 1.89583333,4.80433446 1.89583333,4.56283446 C1.89583333,4.32133446 2.09183333,4.12533446 2.33333333,4.12533446 L3.20833333,4.12533446 C3.44983333,4.12533446 3.64583333,4.32133446 3.64583333,4.56283446 C3.64583333,4.80433446 3.44983333,5.00033446 3.20833333,5.00033446 Z M3.20833333,3.25033446 L2.33333333,3.25033446 C2.09183333,3.25033446 1.89583333,3.05433446 1.89583333,2.81283446 C1.89583333,2.57133446 2.09183333,2.37533446 2.33333333,2.37533446 L3.20833333,2.37533446 C3.44983333,2.37533446 3.64583333,2.57133446 3.64583333,2.81283446 C3.64583333,3.05433446 3.44983333,3.25033446 3.20833333,3.25033446 Z M6.125,8.50033446 L5.25,8.50033446 C5.0085,8.50033446 4.8125,8.30433446 4.8125,8.06283446 C4.8125,7.82133446 5.0085,7.62533446 5.25,7.62533446 L6.125,7.62533446 C6.3665,7.62533446 6.5625,7.82133446 6.5625,8.06283446 C6.5625,8.30433446 6.3665,8.50033446 6.125,8.50033446 Z M6.125,6.75033446 L5.25,6.75033446 C5.0085,6.75033446 4.8125,6.55433446 4.8125,6.31283446 C4.8125,6.07133446 5.0085,5.87533446 5.25,5.87533446 L6.125,5.87533446 C6.3665,5.87533446 6.5625,6.07133446 6.5625,6.31283446 C6.5625,6.55433446 6.3665,6.75033446 6.125,6.75033446 Z M6.125,5.00033446 L5.25,5.00033446 C5.0085,5.00033446 4.8125,4.80433446 4.8125,4.56283446 C4.8125,4.32133446 5.0085,4.12533446 5.25,4.12533446 L6.125,4.12533446 C6.3665,4.12533446 6.5625,4.32133446 6.5625,4.56283446 C6.5625,4.80433446 6.3665,5.00033446 6.125,5.00033446 Z M6.125,3.25033446 L5.25,3.25033446 C5.0085,3.25033446 4.8125,3.05433446 4.8125,2.81283446 C4.8125,2.57133446 5.0085,2.37533446 5.25,2.37533446 L6.125,2.37533446 C6.3665,2.37533446 6.5625,2.57133446 6.5625,2.81283446 C6.5625,3.05433446 6.3665,3.25033446 6.125,3.25033446 Z" id="Shape"></path>
                        <path d="M13.195,6.2206678 L9.04166667,5.3509178 L9.04166667,13.8961678 L12.9791667,13.8961678 C13.5420833,13.8961678 14,13.4382511 14,12.8753345 L14,7.2181678 C14,6.73633446 13.6715833,6.32625113 13.195,6.2206678 Z M11.8125,12.1461678 L10.9375,12.1461678 C10.696,12.1461678 10.5,11.9501678 10.5,11.7086678 C10.5,11.4671678 10.696,11.2711678 10.9375,11.2711678 L11.8125,11.2711678 C12.054,11.2711678 12.25,11.4671678 12.25,11.7086678 C12.25,11.9501678 12.054,12.1461678 11.8125,12.1461678 Z M11.8125,10.3961678 L10.9375,10.3961678 C10.696,10.3961678 10.5,10.2001678 10.5,9.9586678 C10.5,9.7171678 10.696,9.5211678 10.9375,9.5211678 L11.8125,9.5211678 C12.054,9.5211678 12.25,9.7171678 12.25,9.9586678 C12.25,10.2001678 12.054,10.3961678 11.8125,10.3961678 Z M11.8125,8.6461678 L10.9375,8.6461678 C10.696,8.6461678 10.5,8.4501678 10.5,8.2086678 C10.5,7.9671678 10.696,7.7711678 10.9375,7.7711678 L11.8125,7.7711678 C12.054,7.7711678 12.25,7.9671678 12.25,8.2086678 C12.25,8.4501678 12.054,8.6461678 11.8125,8.6461678 Z" id="Shape"></path>
                    </g>
                </g>
            </g>
        </g>
    </g>
</svg>