<?xml version="1.0" encoding="UTF-8"?>
<svg width="64px" height="64px" viewBox="0 0 64 64" version="1.1" xmlns="http://www.w3.org/2000/svg" xmlns:xlink="http://www.w3.org/1999/xlink">
    <title>3C4CADBC-87A4-4E4D-AD96-D1107EA58519</title>
    <g id="Page-3" stroke="none" stroke-width="1" fill="none" fill-rule="evenodd">
        <g id="Home-YLN---Employer" transform="translate(-774.000000, -3154.000000)">
            <g id="Group-9" transform="translate(370.000000, 2784.000000)">
                <g id="Group-8" transform="translate(302.000000, 338.000000)">
                    <g id="Research" transform="translate(102.000000, 32.000000)">
                        <rect id="Rectangle" fill="#FFC72B" x="0" y="0" width="64" height="64" rx="19"></rect>
                        <g id="004-branding-1" transform="translate(19.000000, 19.000000)" fill="#EBEEF1" fill-rule="nonzero">
                            <path d="M6.14453125,0.76171875 C6.14453125,0.335105469 5.80942578,0 5.3828125,0 C4.95619922,0 4.62109375,0.335105469 4.62109375,0.76171875 L4.62109375,1.5234375 L6.14453125,1.5234375 L6.14453125,0.76171875 Z" id="Path"></path>
                            <path d="M10.7148438,0.76171875 C10.7148438,0.335105469 10.3797383,0 9.953125,0 C9.52651172,0 9.19140625,0.335105469 9.19140625,0.76171875 L9.19140625,1.5234375 L10.7148438,1.5234375 L10.7148438,0.76171875 Z" id="Path"></path>
                            <path d="M15.2851562,0.76171875 C15.2851562,0.335105469 14.9500508,0 14.5234375,0 C14.0968242,0 13.7617188,0.335105469 13.7617188,0.76171875 L13.7617188,1.5234375 L15.2851562,1.5234375 L15.2851562,0.76171875 Z" id="Path"></path>
                            <path d="M9.19140625,17.5703125 L9.19140625,19.09375 C9.19140625,20.3538359 10.2164766,21.3789062 11.4765625,21.3789062 L12.2382812,21.3789062 L12.2382812,16.8085938 L9.953125,16.8085938 C9.53357031,16.8085938 9.19140625,17.1500469 9.19140625,17.5703125 Z" id="Path"></path>
                            <circle id="Oval" cx="6.90625" cy="9.953125" r="2.28515625"></circle>
                            <path d="M0.76171875,26 L13.853125,26 C13.0305195,25.2077617 12.4972656,24.0905742 12.3144531,22.9023438 L11.4765625,22.9023438 C9.37421875,22.9023438 7.66796875,21.1960937 7.66796875,19.09375 L7.66796875,17.5703125 C7.66796875,16.3058086 8.68862109,15.2851562 9.953125,15.2851562 L12.2382812,15.2851562 L12.2382812,14.5234375 C12.2382812,13.2589336 13.2589336,12.2382812 14.5234375,12.2382812 L19.8554688,12.2382812 L19.8554688,2.28515625 C19.8554688,1.85854297 19.5203633,1.5234375 19.09375,1.5234375 L15.2851562,1.5234375 L15.2851562,3.046875 C15.2851562,3.47338672 14.9500508,3.80859375 14.5234375,3.80859375 C14.0968242,3.80859375 13.7617188,3.47338672 13.7617188,3.046875 L13.7617188,1.5234375 L10.7148438,1.5234375 L10.7148438,3.046875 C10.7148438,3.47338672 10.3797383,3.80859375 9.953125,3.80859375 C9.52651172,3.80859375 9.19140625,3.47338672 9.19140625,3.046875 L9.19140625,1.5234375 L6.14453125,1.5234375 L6.14453125,3.046875 C6.14453125,3.47338672 5.80942578,3.80859375 5.3828125,3.80859375 C4.95619922,3.80859375 4.62109375,3.47338672 4.62109375,3.046875 L4.62109375,1.5234375 L0.76171875,1.5234375 C0.335105469,1.5234375 0,1.85854297 0,2.28515625 L0,25.2382812 C0,25.664793 0.335105469,26 0.76171875,26 Z M13,6.14453125 L16.046875,6.14453125 C16.4734883,6.14453125 16.8085938,6.47963672 16.8085938,6.90625 C16.8085938,7.33276172 16.4734883,7.66796875 16.046875,7.66796875 L13,7.66796875 C12.5733867,7.66796875 12.2382812,7.33276172 12.2382812,6.90625 C12.2382812,6.47963672 12.5733867,6.14453125 13,6.14453125 Z M13,9.19140625 L16.046875,9.19140625 C16.4734883,9.19140625 16.8085938,9.52651172 16.8085938,9.953125 C16.8085938,10.3796367 16.4734883,10.7148438 16.046875,10.7148438 L13,10.7148438 C12.5733867,10.7148438 12.2382812,10.3796367 12.2382812,9.953125 C12.2382812,9.52651172 12.5733867,9.19140625 13,9.19140625 Z M6.90625,6.14453125 C9.00859375,6.14453125 10.7148438,7.85078125 10.7148438,9.953125 C10.7148438,12.0554687 9.00859375,13.7617188 6.90625,13.7617188 C4.80390625,13.7617188 3.09765625,12.0554687 3.09765625,9.953125 C3.09765625,7.85078125 4.80390625,6.14453125 6.90625,6.14453125 Z" id="Shape"></path>
                            <circle id="Oval" cx="19.8554688" cy="19.8554688" r="2.28515625"></circle>
                            <path d="M25.2382812,13.7617188 L14.5234375,13.7617188 C14.1024102,13.7617188 13.7617188,14.1024102 13.7617188,14.5234375 L13.7617188,22.140625 C13.7617188,24.240582 15.4696445,26 17.5703125,26 L22.140625,26 C24.241293,26 26,24.240582 26,22.140625 L26,14.5234375 C26,14.1024102 25.6593086,13.7617188 25.2382812,13.7617188 Z M19.8554688,23.6640625 C17.7548008,23.6640625 16.046875,21.9554258 16.046875,19.8554688 C16.046875,17.7555117 17.7548008,16.046875 19.8554688,16.046875 C21.9561367,16.046875 23.6640625,17.7555117 23.6640625,19.8554688 C23.6640625,21.9554258 21.9561367,23.6640625 19.8554688,23.6640625 Z" id="Shape"></path>
                        </g>
                    </g>
                </g>
            </g>
        </g>
    </g>
</svg>