<?xml version="1.0" encoding="UTF-8"?>
<svg width="80px" height="80px" viewBox="0 0 80 80" version="1.1" xmlns="http://www.w3.org/2000/svg" xmlns:xlink="http://www.w3.org/1999/xlink">
    <title>13304674-2EC5-485F-AC4D-E2699213130D</title>
    <g id="Page-3" stroke="none" stroke-width="1" fill="none" fill-rule="evenodd">
        <g id="Home-YLN---Post-a-job-2" transform="translate(-520.000000, -1081.000000)">
            <g id="Group-8" transform="translate(384.000000, 1081.000000)">
                <g id="Group-6" transform="translate(72.000000, 0.000000)">
                    <g id="Role-visability" transform="translate(64.000000, 0.000000)">
                        <rect id="Rectangle" x="0" y="0" width="80" height="80"></rect>
                        <g id="001-manager" transform="translate(19.000000, 11.000000)" fill="#FFC72B" fill-rule="nonzero">
                            <path d="M22,22 C28.065503,22 33,17.065503 33,11 C33,4.934497 28.065503,0 22,0 C15.934497,0 11,4.934497 11,11 C11,17.065503 15.934497,22 22,22 Z" id="Path"></path>
                            <path d="M36.3101654,27.0327276 C36.305458,27.0311968 36.2964197,27.0277524 36.2917123,27.0266043 C34.8548138,26.6699239 30.4546772,26.0443937 30.4546772,26.0443937 C29.9579483,25.8890157 29.4271376,26.1563347 29.2484433,26.6544244 L22.625266,45.1216298 C22.2432103,46.1868873 20.7605556,46.1868873 20.3784999,45.1216298 L13.7553227,26.6544244 C13.6110868,26.2522021 13.2375045,26 12.8371839,26 C12.742282,26 8.21805729,26.6446654 6.71186537,27.0252649 C2.59605801,28.0652638 0,32.1781871 0,36.4644755 L0,51.8304365 C0,54.1331683 1.83703068,56 4.10300313,56 L38.8969969,56 C41.1629693,56 43,54.1331683 43,51.8304365 L43,36.4133844 C43,32.1456573 40.302073,28.358224 36.3101654,27.0327276 Z" id="Path"></path>
                            <path d="M24.623141,26.4434714 C24.3456959,26.1483382 23.9401992,26 23.5299598,26 L20.4699611,26 C20.0597217,26 19.6540274,26.1485311 19.3767798,26.4434714 C18.9473722,26.9002527 18.8849273,27.5601551 19.1898403,28.0757701 L20.82566,30.4829382 L20.0599193,36.7887579 L21.5678851,40.7045775 C21.7149073,41.0984742 22.2854088,41.0984742 22.432431,40.7045775 L23.9403968,36.7887579 L23.1746561,30.4829382 L24.8104758,28.0757701 C25.1149936,27.5601551 25.0525487,26.9002527 24.623141,26.4434714 L24.623141,26.4434714 Z" id="Path"></path>
                        </g>
                    </g>
                </g>
            </g>
        </g>
    </g>
</svg>