<?xml version="1.0" encoding="UTF-8"?>
<svg width="24px" height="24px" viewBox="0 0 24 24" version="1.1" xmlns="http://www.w3.org/2000/svg" xmlns:xlink="http://www.w3.org/1999/xlink">
    <title>2A3443CD-2A61-4302-9385-757AFF86FE22</title>
    <g id="Page-3" stroke="none" stroke-width="1" fill="none" fill-rule="evenodd" opacity="0.49">
        <g id="Home-YLN---Jobs" transform="translate(-384.000000, -208.000000)">
            <g id="Search" transform="translate(368.000000, 192.000000)">
                <g id="icon/search" transform="translate(16.000000, 16.000000)">
                    <rect id="Rectangle" x="0" y="0" width="24" height="24"></rect>
                    <g id="001-search" transform="translate(1.000000, 1.000000)" fill="#49433A" fill-rule="nonzero">
                        <path d="M20.7827626,19.9098114 L15.580357,14.4990486 C16.9179869,12.9089343 17.6508822,10.9082452 17.6508822,8.82544109 C17.6508822,3.95916961 13.6917126,0 8.82544109,0 C3.95916961,0 0,3.95916961 0,8.82544109 C0,13.6917126 3.95916961,17.6508822 8.82544109,17.6508822 C10.6523074,17.6508822 12.3932216,17.0998677 13.8816514,16.0538611 L19.1235797,21.5056814 C19.3426809,21.7332243 19.6373738,21.858699 19.9531712,21.858699 C20.252085,21.858699 20.5356503,21.7447357 20.7509143,21.5375297 C21.2083024,21.0974088 21.2228835,20.3675832 20.7827626,19.9098114 Z M8.82544109,2.30228898 C12.4223839,2.30228898 15.3485932,5.22849827 15.3485932,8.82544109 C15.3485932,12.4223839 12.4223839,15.3485932 8.82544109,15.3485932 C5.22849827,15.3485932 2.30228898,12.4223839 2.30228898,8.82544109 C2.30228898,5.22849827 5.22849827,2.30228898 8.82544109,2.30228898 Z" id="Shape"></path>
                    </g>
                </g>
            </g>
        </g>
    </g>
</svg>